<svg width="597" height="118" viewBox="0 0 597 118" fill="none" xmlns="http://www.w3.org/2000/svg">
<path d="M508.955 91.2039C503.371 91.1872 500.236 89.0309 498.768 83.6366C496.808 76.4253 496.322 68.9412 495.081 61.5935C494.592 58.705 494.276 55.7899 493.763 52.908C493.52 51.547 493.321 49.8066 491.431 49.8265C489.457 49.8465 489.517 51.6701 489.314 53.0012C488 61.5103 486.762 70.0294 485.464 78.5384C485.264 79.8496 484.938 81.1507 484.575 82.4286C482.14 90.9942 475.041 92.7613 467.923 90.2022C464.815 89.0841 463.308 86.3853 462.466 83.377C460.888 77.7165 460.403 71.853 459.428 66.0793C458.406 60.0428 457.501 53.9829 456.582 47.9264C456.047 44.4023 456.775 43.0612 459.321 42.6752C463.158 42.0928 464.333 42.8649 464.958 46.7151C466.665 57.2275 468.303 67.7532 469.97 78.2722C470.066 78.8845 470.143 79.5101 470.333 80.0958C471.021 82.199 472.226 83.7497 474.699 83.6698C477.261 83.5866 477.551 81.5234 477.85 79.7198C479.384 70.4353 480.802 61.1343 482.313 51.8465C483.381 45.2841 486.609 42.5088 492.882 42.6286C497.184 42.7118 499.427 44.3823 500.489 48.6651C502.006 54.7915 502.629 61.081 503.673 67.2973C504.306 71.061 504.875 74.8346 505.504 78.6017C505.633 79.387 505.83 80.1757 506.123 80.9145C506.848 82.7347 508.116 83.8096 510.209 83.6798C512.266 83.5534 512.885 82.0792 513.161 80.4452C514.133 74.6683 515.021 68.878 515.953 63.0943C516.828 57.6601 517.663 52.2192 518.615 46.8016C519.251 43.191 522.499 41.4805 525.88 42.805C527.164 43.3074 527.284 44.3424 527.104 45.4372C525.187 57.1742 523.477 68.9545 521.224 80.6283C519.776 88.1357 515.717 91.2272 508.951 91.2039H508.955Z" fill="#84DFEB"/>
<path d="M140.355 61.74C140.355 53.9231 140.329 46.1095 140.365 38.2926C140.399 31.5273 144.189 27.7569 150.981 27.7136C156.419 27.677 161.853 27.687 167.29 27.7103C182.272 27.7702 186.864 36.3259 186.269 49.201C186.119 52.4755 185.407 55.7068 183.746 58.6485C179.982 65.3107 173.74 67.3905 166.651 67.69C162.026 67.8864 157.384 67.7333 152.748 67.7466C149.014 67.7566 148.968 67.7998 148.954 71.4105C148.941 76.1159 149.004 80.8247 148.911 85.5301C148.855 88.4685 147.4 89.986 144.825 90.1557C141.271 90.3887 140.365 89.5734 140.355 85.986C140.336 77.9029 140.349 69.8231 140.352 61.74H140.355ZM148.964 47.9065C148.964 51.0146 148.964 54.1261 148.964 57.2342C148.964 58.4755 149.147 59.6868 150.745 59.6568C157.593 59.5337 164.472 60.3157 171.29 59.1576C174.292 58.6485 176.319 56.9181 177.004 53.8998C177.693 50.8582 178.076 47.8067 177.467 44.6619C176.312 38.6919 173.626 36.0763 167.577 35.8301C162.415 35.6204 157.237 35.7735 152.066 35.7469C149.963 35.7369 148.948 36.7452 148.964 38.845C148.984 41.8666 148.971 44.8849 148.964 47.9065Z" fill="#84DFEB"/>
<path d="M340.514 91.2038C335.572 91.3136 330.747 90.5882 326.035 89.1073C324.358 88.5815 322.933 87.8095 322.481 85.8827C321.626 82.2355 323.995 79.8595 327.586 80.9576C332.141 82.3553 336.817 82.8478 341.532 83.1473C344.048 83.307 346.524 82.9077 348.97 82.4718C355.076 81.3836 357.146 75.1341 353.02 70.4053C351.356 68.4985 349.169 67.2639 347.056 65.9428C341.622 62.5451 336.071 59.3239 330.774 55.7232C324.833 51.69 322.055 46.0162 323.266 38.755C324.165 33.3806 327.602 30.0196 332.564 28.3857C341.163 25.5538 349.798 26.2226 358.291 29.0046C361.063 29.9131 361.861 34.1494 359.901 36.3224C358.883 37.4538 357.752 37.2874 356.484 36.9047C350.537 35.1011 344.487 34.3524 338.288 35.2109C335.785 35.557 332.99 35.7866 332.188 38.6385C331.303 41.7832 331.928 44.8281 334.6 47.1276C337.519 49.6368 340.893 51.4704 344.125 53.5169C348.634 56.3721 353.229 59.0976 357.525 62.2856C362.966 66.3221 364.417 71.8629 363.342 78.1257C362.357 83.8894 358.547 87.4734 353.139 89.4334C349.06 90.911 344.817 91.297 340.511 91.2071L340.514 91.2038Z" fill="#84DFEB"/>
<path d="M551.593 69.8098C547.583 69.8098 543.576 69.8497 539.566 69.7931C537.61 69.7632 536.918 70.4054 537.17 72.4953C538.039 79.6566 541.343 82.8246 548.661 83.1641C553.486 83.387 558.262 83.0742 562.994 82.006C564.624 81.6366 566.591 80.6416 567.619 83.0243C568.495 85.0509 567.333 87.7564 565.104 88.8545C562.342 90.2156 559.307 90.5184 556.302 90.8945C551.4 91.5068 546.521 91.4036 541.71 90.2389C534.884 88.585 530.578 84.3854 529.427 77.4204C528.322 70.7349 528.302 63.9562 529.317 57.2774C530.695 48.206 537.134 42.4556 546.325 41.6769C549.067 41.444 551.859 41.3441 554.591 41.8034C563.899 43.3741 568.877 49.1111 569.433 58.8648C569.553 60.9879 569.546 63.1143 569.09 65.2275C568.348 68.675 567.22 69.7199 563.619 69.7832C559.613 69.853 555.603 69.7998 551.593 69.7998V69.8164V69.8098ZM549.017 62.3989C552.215 62.3989 555.417 62.309 558.611 62.4288C560.891 62.5153 561.526 61.5103 561.456 59.3972C561.287 54.3657 558.428 50.3956 553.407 49.5537C544.086 47.9863 537.327 49.6502 536.951 59.6069C536.881 61.4804 537.38 62.4588 539.423 62.4155C542.621 62.3489 545.819 62.3989 549.017 62.4022V62.3989Z" fill="#84DFEB"/>
<path d="M279.708 69.8129C275.695 69.8129 271.685 69.8595 267.672 69.7929C265.668 69.7597 265.039 70.6648 265.079 72.555C265.209 78.8045 269.296 82.7146 276.457 83.1306C281.455 83.4201 286.43 83.2071 291.312 81.8827C292.593 81.5366 294.304 80.5083 295.172 82.1889C296.037 83.8627 295.941 85.8128 294.713 87.4833C293.941 88.5316 292.873 89.1472 291.635 89.4866C284.38 91.48 277.059 91.9425 269.698 90.2021C261.978 88.3785 257.352 82.9243 257.053 75.0375C256.846 69.6266 256.823 64.1923 257.056 58.7847C257.462 49.3472 264.657 42.3855 274.643 41.6634C279.369 41.3206 284.078 41.4471 288.503 43.6301C292.7 45.6966 295.302 48.9645 296.517 53.4104C297.615 57.4337 297.305 61.5335 297.026 65.5966C296.843 68.2988 294.959 69.6765 291.731 69.7597C287.721 69.8595 283.708 69.783 279.698 69.783V69.8129H279.708ZM277.482 62.392C280.77 62.392 284.061 62.382 287.349 62.3953C288.693 62.402 289.495 61.9694 289.588 60.4353C289.898 55.2074 286.773 50.9046 281.655 49.5868C279.023 48.9079 276.35 48.8846 273.712 49.2507C267.529 50.1026 264.823 53.5768 265.059 59.8829C265.126 61.6865 265.808 62.4453 267.615 62.4153C270.903 62.3587 274.194 62.3987 277.482 62.392Z" fill="#84DFEB"/>
<path d="M376.923 46.9879C382.727 41.2109 389.725 40.8016 396.993 42.0695C404.523 43.3806 408.786 48.2525 408.936 55.9163C409.129 65.863 409.043 75.8163 408.973 85.7663C408.946 89.5766 405.685 91.4934 402.201 89.936C400.733 89.2804 400.88 87.956 400.876 86.7347C400.856 80.6948 400.86 74.6516 400.863 68.6084C400.863 65.0577 400.843 61.5136 400.487 57.9662C400.004 53.1376 397.944 50.5686 393.199 49.8365C389.855 49.3207 386.454 49.2974 383.099 50.0528C379.442 50.8748 377.499 53.131 376.886 56.8148C376.297 60.3555 376.424 63.8963 376.411 67.447C376.387 73.5767 376.437 79.7065 376.384 85.8395C376.351 89.56 373.379 91.3935 369.915 89.9327C368.377 89.2838 368.321 87.9327 368.317 86.575C368.307 80.2655 368.307 73.9594 368.307 67.65C368.307 54.5885 368.307 41.5304 368.314 28.469C368.314 27.3209 368.181 26.1462 368.757 25.0713C369.702 23.3076 372.274 22.4357 374.65 23.0181C376.763 23.5372 376.377 25.241 376.387 26.6819C376.427 32.3691 376.391 38.0529 376.417 43.74C376.421 44.6885 376.178 45.6835 376.93 46.9879H376.923Z" fill="#84DFEB"/>
<path d="M455.547 66.8447C455.431 69.0576 455.883 72.4453 455.251 75.7897C453.747 83.7364 448.652 88.9343 440.722 90.5916C435.94 91.5899 431.145 91.4967 426.406 90.4085C418.213 88.525 413.651 82.9444 413.284 74.1591C413.078 69.1974 413.065 64.2091 413.294 59.2507C413.744 49.4738 421.015 42.4455 431.414 41.6735C435.045 41.404 438.702 41.384 442.322 42.1793C450.436 43.9663 455.267 49.6601 455.537 57.9662C455.62 60.5386 455.55 63.1143 455.55 66.8413L455.547 66.8447ZM447.431 66.8846C447.431 64.4886 447.557 62.086 447.404 59.7C447.038 53.9762 444.303 50.6751 439.101 49.8398C435.757 49.3007 432.336 49.2974 428.991 49.8631C424.359 50.6485 422.519 52.4654 421.79 57.1443C420.912 62.7748 420.925 68.4753 421.737 74.0992C422.522 79.5201 424.932 81.8262 430.299 82.8612C433.464 83.4702 436.699 83.4469 439.863 82.9044C444.489 82.1124 446.193 80.2689 447.138 75.6399C447.73 72.7348 447.344 69.7997 447.427 66.8813L447.431 66.8846Z" fill="#84DFEB"/>
<path d="M188.508 61.3273C188.504 56.5287 188.464 51.7334 188.518 46.9348C188.554 43.4573 192.248 41.3175 195.406 42.8816C196.837 43.5904 196.598 44.9481 196.601 46.1561C196.624 54.4189 196.611 62.6784 196.617 70.9412C196.617 71.9196 196.591 72.9013 196.684 73.8697C197.213 79.4037 200.118 82.4786 205.662 83.0476C208.132 83.3005 210.664 83.2939 213.136 83.0576C218.328 82.5684 220.571 80.1225 220.627 74.8513C220.724 65.7899 220.644 56.7284 220.694 47.6669C220.714 44.1494 222.055 42.7185 225.153 42.6287C228.304 42.5388 229.156 43.2676 229.18 46.4722C229.233 54.0229 229.22 61.5736 229.193 69.1243C229.186 70.9845 229.196 72.868 228.927 74.7016C227.423 84.9578 222.877 89.5434 212.604 90.981C208.158 91.6033 203.696 91.3238 199.366 89.9926C192.764 87.9594 188.794 82.6949 188.524 75.7099C188.514 75.4437 188.508 75.1775 188.508 74.9113C188.508 70.3788 188.508 65.8498 188.504 61.3174L188.508 61.3273Z" fill="#84DFEB"/>
<path d="M233.493 71.7831C233.493 67.2574 233.44 62.7316 233.506 58.2092C233.679 46.1161 242.425 40.2659 254.018 41.7202C256.404 42.0197 257.047 43.8033 256.877 45.8066C256.711 47.7534 255.902 49.4871 253.536 49.5936C251.849 49.6702 250.152 49.5404 248.461 49.5936C244.025 49.7301 242.105 51.577 242.068 55.9996C241.995 64.9612 242.048 73.9229 242.012 82.8845C242.005 84.2057 241.889 85.5434 241.666 86.8479C241.286 89.0842 239.952 90.1923 237.589 90.1923C234.278 90.1923 233.516 89.5467 233.493 86.1624C233.463 81.3704 233.486 76.5784 233.486 71.7898L233.493 71.7831Z" fill="#84DFEB"/>
<path d="M581.792 71.2704C581.789 75.9725 581.832 80.6747 581.776 85.3768C581.729 89.4533 579.253 91.2004 575.36 90.0589C574.252 89.7328 573.722 88.9807 573.672 87.9292C573.14 76.3286 572.425 64.6748 574.235 53.1641C575.3 46.3921 581.027 42.1958 588.152 41.6467C589.746 41.5236 591.36 41.5435 592.957 41.6367C595.902 41.8064 596.864 42.858 596.75 45.5934C596.637 48.3455 595.343 49.5967 592.574 49.6067C591.596 49.61 590.614 49.5634 589.636 49.5668C583.756 49.5834 581.849 51.4769 581.802 57.4303C581.766 62.0425 581.796 66.6581 581.792 71.2704Z" fill="#84DFEB"/>
<path d="M507.907 92.199C502.323 92.1824 499.188 90.026 497.72 84.6317C495.76 77.4204 495.275 69.9363 494.033 62.5886C493.544 59.7001 493.228 56.785 492.716 53.9032C492.473 52.5421 492.273 50.8017 490.383 50.8216C488.409 50.8416 488.469 52.6652 488.266 53.9963C486.952 62.5054 485.714 71.0245 484.416 79.5336C484.216 80.8447 483.89 82.1458 483.528 83.4237C481.092 91.9894 473.994 93.7564 466.875 91.1973C463.767 90.0792 462.26 87.3804 461.418 84.3721C459.841 78.7116 459.355 72.8481 458.38 67.0744C457.358 61.0379 456.453 54.978 455.534 48.9215C454.999 45.3974 455.727 44.0563 458.273 43.6703C462.11 43.0879 463.285 43.86 463.91 47.7102C465.618 58.2226 467.255 68.7483 468.922 79.2673C469.019 79.8796 469.095 80.5053 469.285 81.0909C469.974 83.1941 471.178 84.7448 473.651 84.665C476.213 84.5818 476.503 82.5186 476.802 80.7149C478.336 71.4305 479.754 62.1294 481.265 52.8416C482.333 46.2793 485.561 43.5039 491.834 43.6237C496.136 43.7069 498.379 45.3774 499.441 49.6603C500.958 55.7867 501.581 62.0761 502.626 68.2924C503.258 72.0561 503.827 75.8298 504.456 79.5968C504.586 80.3821 504.782 81.1708 505.075 81.9096C505.8 83.7299 507.068 84.8047 509.161 84.6749C511.218 84.5485 511.837 83.0743 512.113 81.4404C513.085 75.6634 513.973 69.8731 514.905 64.0894C515.78 58.6552 516.616 53.2143 517.567 47.7967C518.203 44.1861 521.451 42.4756 524.832 43.8001C526.116 44.3026 526.236 45.3375 526.056 46.4323C524.14 58.1693 522.429 69.9496 520.176 81.6234C518.729 89.1308 514.669 92.2223 507.903 92.199H507.907Z" fill="#03A9F4"/>
<path d="M139.311 62.7351C139.311 54.9182 139.284 47.1046 139.321 39.2877C139.354 32.5224 143.144 28.752 149.936 28.7088C155.374 28.6722 160.808 28.6821 166.245 28.7054C181.227 28.7653 185.819 37.321 185.224 50.1961C185.074 53.4706 184.362 56.7019 182.701 59.6436C178.938 66.3058 172.695 68.3856 165.607 68.6851C160.981 68.8815 156.339 68.7284 151.703 68.7417C147.969 68.7517 147.923 68.795 147.909 72.4056C147.896 77.111 147.959 81.8198 147.866 86.5253C147.81 89.4637 146.355 90.9811 143.78 91.1508C140.226 91.3838 139.321 90.5685 139.311 86.9812C139.291 78.898 139.304 70.8182 139.307 62.7351H139.311ZM147.919 48.9016C147.919 52.0097 147.919 55.1212 147.919 58.2293C147.919 59.4706 148.103 60.6819 149.7 60.6519C156.548 60.5288 163.427 61.3108 170.245 60.1528C173.247 59.6436 175.274 57.9132 175.959 54.8949C176.648 51.8533 177.031 48.8018 176.422 45.657C175.267 39.687 172.581 37.0714 166.532 36.8252C161.37 36.6155 156.192 36.7686 151.021 36.742C148.918 36.732 147.903 37.7403 147.919 39.8401C147.939 42.8617 147.926 45.88 147.919 48.9016Z" fill="#03A9F4"/>
<path d="M339.465 92.1989C334.523 92.3087 329.698 91.5833 324.986 90.1024C323.309 89.5766 321.885 88.8046 321.432 86.8778C320.577 83.2306 322.946 80.8546 326.537 81.9527C331.092 83.3504 335.768 83.8429 340.483 84.1424C342.999 84.3021 345.475 83.9028 347.921 83.4669C354.027 82.3787 356.097 76.1292 351.971 71.4004C350.307 69.4936 348.121 68.259 346.007 66.9379C340.573 63.5402 335.023 60.319 329.725 56.7183C323.785 52.6851 321.006 47.0113 322.217 39.7501C323.116 34.3758 326.553 31.0147 331.515 29.3808C340.114 26.5489 348.75 27.2178 357.242 29.9998C360.014 30.9082 360.813 35.1445 358.853 37.3175C357.834 38.4489 356.703 38.2826 355.435 37.8999C349.488 36.0962 343.438 35.3475 337.239 36.206C334.736 36.5521 331.941 36.7817 331.139 39.6336C330.254 42.7784 330.879 45.8233 333.552 48.1227C336.47 50.6319 339.844 52.4655 343.076 54.512C347.585 57.3673 352.18 60.0927 356.477 63.2807C361.917 67.3173 363.368 72.858 362.293 79.1208C361.308 84.8845 357.498 88.4685 352.091 90.4285C348.011 91.9061 343.768 92.2921 339.462 92.2022L339.465 92.1989Z" fill="#03A9F4"/>
<path d="M550.545 70.8049C546.535 70.8049 542.529 70.8448 538.519 70.7883C536.562 70.7583 535.87 71.4006 536.123 73.4904C536.991 80.6517 540.296 83.8198 547.613 84.1592C552.439 84.3822 557.214 84.0693 561.946 83.0011C563.577 82.6318 565.543 81.6368 566.572 84.0194C567.447 86.046 566.285 88.7515 564.056 89.8497C561.294 91.2107 558.259 91.5135 555.254 91.8896C550.352 92.5019 545.474 92.3987 540.662 91.234C533.836 89.5801 529.53 85.3805 528.379 78.4155C527.274 71.73 527.254 64.9514 528.269 58.2726C529.647 49.2011 536.086 43.4507 545.277 42.672C548.019 42.4391 550.811 42.3392 553.543 42.7985C562.851 44.3692 567.829 50.1062 568.385 59.8599C568.505 61.983 568.498 64.1094 568.042 66.2226C567.3 69.6701 566.172 70.715 562.572 70.7783C558.565 70.8482 554.555 70.7949 550.545 70.7949V70.8116V70.8049ZM547.969 63.394C551.167 63.394 554.369 63.3041 557.563 63.4239C559.843 63.5104 560.478 62.5055 560.409 60.3923C560.239 55.3608 557.38 51.3907 552.359 50.5488C543.038 48.9815 536.279 50.6453 535.903 60.602C535.833 62.4755 536.332 63.4539 538.375 63.4106C541.573 63.3441 544.771 63.394 547.969 63.3973V63.394Z" fill="#03A9F4"/>
<path d="M278.663 70.808C274.65 70.808 270.64 70.8546 266.627 70.7881C264.623 70.7548 263.994 71.6599 264.034 73.5501C264.164 79.7996 268.251 83.7098 275.412 84.1257C280.41 84.4152 285.385 84.2023 290.267 82.8778C291.548 82.5317 293.259 81.5035 294.127 83.184C294.993 84.8578 294.896 86.8079 293.668 88.4784C292.896 89.5267 291.828 90.1423 290.59 90.4817C283.335 92.4751 276.014 92.9376 268.653 91.1972C260.933 89.3736 256.307 83.9194 256.008 76.0326C255.802 70.6217 255.778 65.1874 256.011 59.7798C256.417 50.3423 263.612 43.3806 273.598 42.6585C278.324 42.3158 283.033 42.4422 287.459 44.6252C291.655 46.6918 294.257 49.9596 295.472 54.4055C296.57 58.4288 296.26 62.5286 295.981 66.5918C295.798 69.2939 293.914 70.6716 290.686 70.7548C286.677 70.8546 282.663 70.7781 278.653 70.7781V70.808H278.663ZM276.437 63.3871C279.725 63.3871 283.016 63.3771 286.304 63.3905C287.648 63.3971 288.45 62.9645 288.543 61.4304C288.853 56.2025 285.728 51.8997 280.61 50.5819C277.978 49.903 275.306 49.8798 272.667 50.2458C266.484 51.0977 263.778 54.5719 264.014 60.878C264.081 62.6816 264.763 63.4404 266.57 63.4104C269.858 63.3539 273.149 63.3938 276.437 63.3871Z" fill="#03A9F4"/>
<path d="M375.874 47.9831C381.678 42.2061 388.676 41.7967 395.944 43.0646C403.475 44.3758 407.737 49.2476 407.887 56.9114C408.08 66.8581 407.994 76.8114 407.924 86.7614C407.897 90.5717 404.636 92.4885 401.152 90.9311C399.684 90.2755 399.831 88.9511 399.827 87.7298C399.807 81.6899 399.811 75.6467 399.814 69.6035C399.814 66.0528 399.794 62.5087 399.438 58.9613C398.955 54.1327 396.896 51.5637 392.15 50.8316C388.806 50.3158 385.405 50.2925 382.05 51.0479C378.393 51.8699 376.45 54.1261 375.838 57.8099C375.249 61.3507 375.375 64.8914 375.362 68.4421C375.338 74.5718 375.388 80.7016 375.335 86.8346C375.302 90.5551 372.33 92.3887 368.866 90.9278C367.328 90.2789 367.272 88.9278 367.269 87.5701C367.259 81.2606 367.259 74.9545 367.259 68.6451C367.259 55.5837 367.259 42.5255 367.265 29.4641C367.265 28.316 367.132 27.1413 367.708 26.0664C368.653 24.3027 371.225 23.4308 373.601 24.0132C375.714 24.5323 375.328 26.2361 375.338 27.6771C375.378 33.3642 375.342 39.048 375.368 44.7352C375.372 45.6836 375.129 46.6786 375.881 47.9831H375.874Z" fill="#03A9F4"/>
<path d="M454.502 67.8398C454.386 70.0527 454.838 73.4404 454.206 76.7848C452.702 84.7315 447.607 89.9295 439.677 91.5867C434.895 92.585 430.1 92.4918 425.361 91.4037C417.168 89.5201 412.606 83.9395 412.24 75.1542C412.033 70.1925 412.02 65.2042 412.25 60.2458C412.699 50.4689 419.97 43.4407 430.369 42.6686C434 42.3991 437.657 42.3791 441.278 43.1744C449.391 44.9614 454.223 50.6552 454.492 58.9613C454.575 61.5337 454.505 64.1094 454.505 67.8365L454.502 67.8398ZM446.386 67.8797C446.386 65.4837 446.512 63.0811 446.359 60.6951C445.993 54.9713 443.258 51.6702 438.056 50.8349C434.712 50.2958 431.291 50.2925 427.947 50.8582C423.314 51.6436 421.474 53.4605 420.745 58.1394C419.867 63.7699 419.88 69.4704 420.692 75.0943C421.477 80.5152 423.887 82.8214 429.254 83.8563C432.419 84.4653 435.654 84.442 438.818 83.8996C443.444 83.1075 445.148 81.264 446.093 76.6351C446.685 73.7299 446.299 70.7948 446.382 67.8764L446.386 67.8797Z" fill="#03A9F4"/>
<path d="M187.463 62.3225C187.459 57.5238 187.42 52.7285 187.473 47.9299C187.509 44.4524 191.203 42.3126 194.361 43.8767C195.792 44.5855 195.553 45.9432 195.556 47.1512C195.579 55.414 195.566 63.6735 195.573 71.9363C195.573 72.9147 195.546 73.8964 195.639 74.8648C196.168 80.3988 199.073 83.4737 204.617 84.0427C207.087 84.2956 209.619 84.289 212.092 84.0527C217.283 83.5635 219.526 81.1176 219.582 75.8465C219.679 66.785 219.599 57.7235 219.649 48.662C219.669 45.1446 221.01 43.7136 224.108 43.6238C227.259 43.5339 228.111 44.2627 228.135 47.4673C228.188 55.018 228.175 62.5687 228.148 70.1194C228.141 71.9796 228.151 73.8631 227.882 75.6967C226.378 85.9529 221.832 90.5385 211.559 91.9761C207.113 92.5984 202.651 92.3189 198.321 90.9878C191.719 88.9545 187.749 83.69 187.479 76.705C187.469 76.4388 187.463 76.1726 187.463 75.9064C187.463 71.374 187.463 66.8449 187.459 62.3125L187.463 62.3225Z" fill="#03A9F4"/>
<path d="M232.445 72.7782C232.445 68.2525 232.392 63.7267 232.458 59.2043C232.631 47.1112 241.377 41.261 252.971 42.7153C255.357 43.0148 255.999 44.7984 255.829 46.8018C255.663 48.7485 254.854 50.4823 252.488 50.5887C250.801 50.6653 249.104 50.5355 247.413 50.5887C242.977 50.7252 241.057 52.5721 241.021 56.9947C240.947 65.9563 241.001 74.918 240.964 83.8797C240.957 85.2008 240.841 86.5385 240.618 87.843C240.239 90.0793 238.904 91.1874 236.541 91.1874C233.23 91.1874 232.468 90.5418 232.445 87.1575C232.415 82.3655 232.438 77.5735 232.438 72.7849L232.445 72.7782Z" fill="#03A9F4"/>
<path d="M580.744 72.2621C580.741 76.9642 580.784 81.6664 580.728 86.3685C580.681 90.445 578.205 92.1921 574.312 91.0506C573.204 90.7245 572.675 89.9724 572.625 88.9209C572.092 77.3203 571.377 65.6665 573.187 54.1558C574.252 47.3838 579.979 43.1875 587.104 42.6384C588.698 42.5153 590.312 42.5352 591.909 42.6284C594.854 42.7981 595.816 43.8497 595.703 46.5851C595.589 49.3372 594.295 50.5884 591.526 50.5984C590.548 50.6017 589.566 50.5551 588.588 50.5585C582.708 50.5751 580.801 52.4686 580.754 58.422C580.718 63.0342 580.748 67.6498 580.744 72.2621Z" fill="#03A9F4"/>
<path d="M60.0228 5.10492e-06C92.5483 0.0133161 118.581 26.0064 118.561 58.4454C118.541 90.7014 92.2422 116.814 59.7932 116.798C27.4307 116.781 1.28121 90.4052 1.33113 57.8298C1.38104 26.0064 27.7868 -0.0133059 60.0228 5.10492e-06ZM109.726 59.0178C109.969 55.74 109.956 52.4854 109.317 49.2409C105.61 30.459 94.6049 17.321 77.0277 10.3859C64.6151 5.48748 51.6302 6.00994 39.2509 11.5307C20.2927 19.9865 10.1663 34.9415 8.97832 55.3307C7.83689 74.9112 16.5956 89.9893 32.9648 100.575C49.2775 111.124 71.8064 110.628 87.2705 99.723C94.6382 94.5283 97.896 85.4768 95.56 76.6882C93.2405 67.9628 85.7564 61.7399 76.848 60.7516C71.4071 60.1493 66.7715 62.1526 61.9995 64.2258C46.4389 70.9944 29.5771 59.7699 28.0697 45.0778C27.0946 35.5704 31.281 25.7069 39.2842 20.8085C58.898 8.80526 85.9427 13.8867 99.8794 32.1794C105.929 40.1195 109.144 49.0778 109.723 59.0178H109.726Z" fill="#84DFEB"/>
<path d="M58.6918 0.99854C91.2173 1.01185 117.25 27.005 117.23 59.444C117.21 91.6999 90.9111 117.813 58.4621 117.796C26.0997 117.783 -0.049845 91.4071 7.13445e-05 58.8317C0.0499877 27.005 26.4558 0.985229 58.6918 0.99854ZM108.395 60.0164C108.638 56.7385 108.625 53.484 107.986 50.2394C104.279 31.4575 93.2738 18.3195 75.6966 11.3845C63.2841 6.48601 50.2992 7.00847 37.9199 12.5292C18.9616 20.9851 8.83527 35.94 7.64726 56.3292C6.50584 75.9097 15.2645 90.9878 31.6337 101.573C47.9464 112.122 70.4754 111.627 85.9395 100.722C93.3071 95.5269 96.565 86.4754 94.2289 77.6868C91.9095 68.9614 84.4253 62.7385 75.5169 61.7501C70.076 61.1478 65.4405 63.1511 60.6684 65.2243C45.1078 71.993 28.2461 60.7684 26.7386 46.0764C25.7636 36.569 29.9499 26.7055 37.9532 21.807C57.567 9.80379 84.6117 14.8853 98.5483 33.178C104.598 41.118 107.813 50.0763 108.392 60.0164H108.395Z" fill="url(#paint0_linear_602_19935)"/>
<defs>
<linearGradient id="paint0_linear_602_19935" x1="17.2878" y1="17.9601" x2="100.029" y2="100.702" gradientUnits="userSpaceOnUse">
<stop stop-color="#80DEEA"/>
<stop offset="1" stop-color="#03A9F4"/>
</linearGradient>
</defs>
</svg>
